<svg width="24" height="23" viewBox="0 0 24 23" fill="none" xmlns="http://www.w3.org/2000/svg">
<g clip-path="url(#clip0_1_2679)" filter="url(#filter0_d_1_2679)">
<path d="M18 3H6C5.175 3 4.5075 3.675 4.5075 4.5L4.5 13.5C4.5 14.325 5.175 15 6 15H18C18.825 15 19.5 14.325 19.5 13.5V4.5C19.5 3.675 18.825 3 18 3ZM17.7 6.1875L12.3975 9.5025C12.1575 9.6525 11.8425 9.6525 11.6025 9.5025L6.3 6.1875C6.1125 6.0675 6 5.865 6 5.6475C6 5.145 6.5475 4.845 6.975 5.1075L12 8.25L17.025 5.1075C17.4525 4.845 18 5.145 18 5.6475C18 5.865 17.8875 6.0675 17.7 6.1875Z" fill="#212121"/>
</g>
<defs>
<filter id="filter0_d_1_2679" x="-1" y="0" width="26" height="26" filterUnits="userSpaceOnUse" color-interpolation-filters="sRGB">
<feFlood flood-opacity="0" result="BackgroundImageFix"/>
<feColorMatrix in="SourceAlpha" type="matrix" values="0 0 0 0 0 0 0 0 0 0 0 0 0 0 0 0 0 0 127 0" result="hardAlpha"/>
<feOffset dy="4"/>
<feGaussianBlur stdDeviation="2"/>
<feComposite in2="hardAlpha" operator="out"/>
<feColorMatrix type="matrix" values="0 0 0 0 0 0 0 0 0 0 0 0 0 0 0 0 0 0 0.25 0"/>
<feBlend mode="normal" in2="BackgroundImageFix" result="effect1_dropShadow_1_2679"/>
<feBlend mode="normal" in="SourceGraphic" in2="effect1_dropShadow_1_2679" result="shape"/>
</filter>
<clipPath id="clip0_1_2679">
<rect width="18" height="18" fill="white" transform="translate(3)"/>
</clipPath>
</defs>
</svg>
